<svg width="20" height="19" viewBox="0 0 20 19" fill="none" xmlns="http://www.w3.org/2000/svg">
<path d="M5.95752 18.1294C5.66976 18.1294 5.44564 18.0326 5.28516 17.8389C5.13021 17.6507 5.05273 17.3962 5.05273 17.0752V14.917H4.6543C3.82975 14.917 3.13525 14.7703 2.5708 14.4771C2.00635 14.1782 1.57747 13.7466 1.28418 13.1821C0.996419 12.6177 0.852539 11.9287 0.852539 11.1152V4.75684C0.852539 3.94336 0.996419 3.25439 1.28418 2.68994C1.57747 2.12549 2.00635 1.69661 2.5708 1.40332C3.13525 1.10449 3.82975 0.955078 4.6543 0.955078H15.3457C16.1702 0.955078 16.8647 1.10449 17.4292 1.40332C17.9937 1.69661 18.4198 2.12549 18.7075 2.68994C19.0008 3.25439 19.1475 3.94336 19.1475 4.75684V11.1152C19.1475 11.9287 19.0008 12.6177 18.7075 13.1821C18.4198 13.7466 17.9937 14.1782 17.4292 14.4771C16.8647 14.7703 16.1702 14.917 15.3457 14.917H10.0166L7.15283 17.4653C6.90381 17.6867 6.69352 17.8527 6.52197 17.9634C6.35042 18.0741 6.16227 18.1294 5.95752 18.1294ZM6.29785 16.6104L8.9541 13.9707C9.10905 13.8102 9.25846 13.7051 9.40234 13.6553C9.54622 13.6055 9.73438 13.5806 9.9668 13.5806H15.3457C16.1813 13.5806 16.8011 13.373 17.2051 12.958C17.609 12.5374 17.811 11.9204 17.811 11.1069V4.75684C17.811 3.94889 17.609 3.3374 17.2051 2.92236C16.8011 2.50179 16.1813 2.2915 15.3457 2.2915H4.6543C3.81315 2.2915 3.19059 2.50179 2.78662 2.92236C2.38818 3.3374 2.18896 3.94889 2.18896 4.75684V11.1069C2.18896 11.9204 2.38818 12.5374 2.78662 12.958C3.19059 13.373 3.81315 13.5806 4.6543 13.5806H5.67529C5.90218 13.5806 6.06266 13.6276 6.15674 13.7217C6.25081 13.8158 6.29785 13.9762 6.29785 14.2031V16.6104ZM5.7251 5.64502C5.58675 5.64502 5.47054 5.59798 5.37646 5.50391C5.28792 5.40983 5.24365 5.29639 5.24365 5.16357C5.24365 5.03076 5.28792 4.92008 5.37646 4.83154C5.47054 4.73747 5.58675 4.69043 5.7251 4.69043H14.167C14.3053 4.69043 14.4188 4.73747 14.5073 4.83154C14.6014 4.92008 14.6484 5.03076 14.6484 5.16357C14.6484 5.29639 14.6014 5.40983 14.5073 5.50391C14.4188 5.59798 14.3053 5.64502 14.167 5.64502H5.7251ZM5.7251 8.34277C5.58675 8.34277 5.47054 8.2985 5.37646 8.20996C5.28792 8.11589 5.24365 7.99967 5.24365 7.86133C5.24365 7.73405 5.28792 7.62337 5.37646 7.5293C5.47054 7.42969 5.58675 7.37988 5.7251 7.37988H14.167C14.3053 7.37988 14.4188 7.42969 14.5073 7.5293C14.6014 7.62337 14.6484 7.73405 14.6484 7.86133C14.6484 7.99967 14.6014 8.11589 14.5073 8.20996C14.4188 8.2985 14.3053 8.34277 14.167 8.34277H5.7251ZM5.7251 11.0488C5.58675 11.0488 5.47054 11.0046 5.37646 10.916C5.28792 10.8219 5.24365 10.7085 5.24365 10.5757C5.24365 10.4373 5.28792 10.3211 5.37646 10.2271C5.47054 10.133 5.58675 10.0859 5.7251 10.0859H11.2119C11.3447 10.0859 11.4582 10.133 11.5522 10.2271C11.6463 10.3211 11.6934 10.4373 11.6934 10.5757C11.6934 10.7085 11.6463 10.8219 11.5522 10.916C11.4582 11.0046 11.3447 11.0488 11.2119 11.0488H5.7251Z" fill="#EFBBFA"/>
</svg>
