<svg width="23" height="16" viewBox="0 0 23 16" fill="none" xmlns="http://www.w3.org/2000/svg">
<path d="M3.17676 15.5522C2.30794 15.5522 1.65495 15.3364 1.21777 14.9048C0.786133 14.4787 0.570312 13.8368 0.570312 12.979V2.86035C0.570312 2.02474 0.769531 1.39941 1.16797 0.984375C1.56641 0.569336 2.13086 0.361816 2.86133 0.361816H5.22705C5.49821 0.361816 5.7334 0.381185 5.93262 0.419922C6.13737 0.458659 6.32275 0.522298 6.48877 0.61084C6.66032 0.699382 6.8374 0.821126 7.02002 0.976074L7.52637 1.39111C7.73665 1.5682 7.93864 1.69548 8.13232 1.77295C8.32601 1.84489 8.56396 1.88086 8.84619 1.88086H13.8682C13.752 2.11328 13.6606 2.3374 13.5942 2.55322C13.5278 2.76351 13.4697 2.98486 13.4199 3.21729H8.49756C8.2264 3.21729 7.98844 3.19792 7.78369 3.15918C7.57894 3.12044 7.39079 3.0568 7.21924 2.96826C7.04769 2.87972 6.87337 2.76074 6.69629 2.61133L6.18994 2.18799C5.97965 2.0109 5.77767 1.88363 5.58398 1.80615C5.39583 1.72868 5.16341 1.68994 4.88672 1.68994H3.13525C2.73682 1.68994 2.43245 1.79508 2.22217 2.00537C2.01188 2.21566 1.90674 2.52555 1.90674 2.93506V12.9126C1.90674 13.3442 2.01742 13.6707 2.23877 13.8921C2.46012 14.1079 2.77832 14.2158 3.19336 14.2158H16.79C17.1995 14.2158 17.5177 14.1079 17.7446 13.8921C17.9715 13.6707 18.085 13.347 18.085 12.9209V9.62549C18.3008 9.65869 18.536 9.67529 18.7905 9.67529C19.0451 9.66976 19.2554 9.65316 19.4214 9.62549V12.979C19.4214 13.8368 19.2139 14.4787 18.7988 14.9048C18.3838 15.3364 17.8055 15.5522 17.064 15.5522H3.17676ZM1.38379 6.25537V5.00195H13.3535C13.3757 5.21777 13.4116 5.43083 13.4614 5.64111C13.5112 5.8514 13.5749 6.05615 13.6523 6.25537H1.38379ZM18.6743 8.53809C18.0988 8.53809 17.5565 8.43018 17.0474 8.21436C16.5382 7.993 16.09 7.68864 15.7026 7.30127C15.3153 6.9139 15.0109 6.46566 14.7896 5.95654C14.5682 5.44743 14.4575 4.90234 14.4575 4.32129C14.4575 3.74023 14.5682 3.19792 14.7896 2.69434C15.0109 2.18522 15.3153 1.73698 15.7026 1.34961C16.09 0.956706 16.5382 0.652344 17.0474 0.436523C17.5565 0.215169 18.0988 0.104492 18.6743 0.104492C19.2554 0.104492 19.8005 0.215169 20.3096 0.436523C20.8187 0.652344 21.2669 0.953939 21.6543 1.34131C22.0417 1.72868 22.3433 2.17692 22.5591 2.68604C22.7804 3.19515 22.8911 3.74023 22.8911 4.32129C22.8911 4.89681 22.7804 5.43913 22.5591 5.94824C22.3377 6.45736 22.0306 6.9056 21.6377 7.29297C21.2503 7.68034 20.8021 7.9847 20.293 8.20605C19.7839 8.42741 19.2443 8.53809 18.6743 8.53809ZM18.6743 7.56689C19.0783 7.56689 19.4463 7.50879 19.7783 7.39258C20.1104 7.27083 20.3898 7.11865 20.6167 6.93604C20.8491 6.74788 21.0124 6.55973 21.1064 6.37158V6.33008C21.0179 6.15853 20.8657 5.98975 20.6499 5.82373C20.4341 5.65218 20.1602 5.51107 19.8281 5.40039C19.4961 5.28971 19.1087 5.23438 18.666 5.23438C18.2288 5.23438 17.8442 5.28971 17.5122 5.40039C17.1802 5.51107 16.9062 5.64941 16.6904 5.81543C16.4746 5.98145 16.3224 6.15299 16.2339 6.33008V6.37158C16.3224 6.55973 16.4801 6.74512 16.707 6.92773C16.9395 7.11035 17.2244 7.26253 17.562 7.38428C17.8996 7.50602 18.2703 7.56689 18.6743 7.56689ZM18.666 4.57031C19.0479 4.57031 19.3688 4.4292 19.6289 4.14697C19.889 3.86475 20.019 3.50781 20.019 3.07617C20.019 2.6888 19.889 2.354 19.6289 2.07178C19.3688 1.78402 19.0479 1.64014 18.666 1.64014C18.2897 1.64014 17.9688 1.78402 17.7031 2.07178C17.443 2.354 17.313 2.6888 17.313 3.07617C17.313 3.50781 17.443 3.86475 17.7031 4.14697C17.9632 4.4292 18.2842 4.57031 18.666 4.57031Z" fill="#A5C3FF"/>
</svg>
