<svg width="122" height="57" viewBox="0 0 122 57" fill="none" xmlns="http://www.w3.org/2000/svg">
<g clip-path="url(#clip0_17376_3368)">
<path d="M54.1768 29.5522C53.3079 29.5522 52.6549 29.3364 52.2178 28.9048C51.7861 28.4787 51.5703 27.8368 51.5703 26.979V16.8604C51.5703 16.0247 51.7695 15.3994 52.168 14.9844C52.5664 14.5693 53.1309 14.3618 53.8613 14.3618H56.2271C56.4982 14.3618 56.7334 14.3812 56.9326 14.4199C57.1374 14.4587 57.3228 14.5223 57.4888 14.6108C57.6603 14.6994 57.8374 14.8211 58.02 14.9761L58.5264 15.3911C58.7367 15.5682 58.9386 15.6955 59.1323 15.7729C59.326 15.8449 59.564 15.8809 59.8462 15.8809H67.8149C68.6782 15.8809 69.3285 16.0967 69.7656 16.5283C70.2028 16.96 70.4214 17.6019 70.4214 18.4541V26.979C70.4214 27.8368 70.2139 28.4787 69.7988 28.9048C69.3838 29.3364 68.8055 29.5522 68.064 29.5522H54.1768ZM54.1934 28.2158H67.79C68.1995 28.2158 68.5177 28.1079 68.7446 27.8921C68.9715 27.6707 69.085 27.347 69.085 26.9209V18.5288C69.085 18.0972 68.9715 17.7707 68.7446 17.5493C68.5177 17.328 68.1995 17.2173 67.79 17.2173H59.4976C59.2264 17.2173 58.9884 17.1979 58.7837 17.1592C58.5789 17.1204 58.3908 17.0568 58.2192 16.9683C58.0477 16.8797 57.8734 16.7607 57.6963 16.6113L57.1899 16.188C56.9797 16.0109 56.7777 15.8836 56.584 15.8062C56.3958 15.7287 56.1634 15.6899 55.8867 15.6899H54.1353C53.7368 15.6899 53.4325 15.7951 53.2222 16.0054C53.0119 16.2157 52.9067 16.5256 52.9067 16.9351V26.9126C52.9067 27.3442 53.0174 27.6707 53.2388 27.8921C53.4601 28.1079 53.7783 28.2158 54.1934 28.2158ZM52.3838 20.2554V19.002H69.5996V20.2554H52.3838Z" fill="white" fill-opacity="0.4"/>
</g>
<path d="M48.8412 48V40.2495H50.431L52.7621 46.2168H52.8534L55.179 40.2495H56.7689V48H55.5228V42.4893H54.846L56.221 40.4644L53.2777 48H52.3324L49.3944 40.4644L50.7694 42.4893H50.0872V48H48.8412ZM58.6175 48V42.1294H59.9495V48H58.6175ZM59.2888 41.1465C59.0704 41.1465 58.8824 41.0695 58.7249 40.9155C58.5673 40.7616 58.4886 40.5771 58.4886 40.3623C58.4886 40.1403 58.5673 39.9541 58.7249 39.8037C58.8824 39.6497 59.0704 39.5728 59.2888 39.5728C59.5073 39.5728 59.6935 39.6497 59.8474 39.8037C60.005 39.9541 60.0838 40.1403 60.0838 40.3623C60.0838 40.5771 60.005 40.7616 59.8474 40.9155C59.6935 41.0695 59.5073 41.1465 59.2888 41.1465ZM61.6584 48V42.1294H62.9958V43.0317H63.0871C63.2268 42.7131 63.438 42.4642 63.7209 42.2852C64.0038 42.1061 64.3565 42.0166 64.779 42.0166C65.4343 42.0166 65.9356 42.2064 66.2829 42.5859C66.6303 42.9655 66.8039 43.5044 66.8039 44.2026V48H65.4665V44.5142C65.4665 44.0558 65.3698 43.7121 65.1765 43.4829C64.9867 43.2537 64.6895 43.1392 64.2849 43.1392C64.0199 43.1392 63.7907 43.1982 63.5974 43.3164C63.404 43.4346 63.2554 43.6011 63.1516 43.8159C63.0477 44.0308 62.9958 44.285 62.9958 44.5786V48H61.6584ZM70.9567 48.1182C70.373 48.1182 69.8717 47.9946 69.4528 47.7476C69.0374 47.5005 68.7169 47.1496 68.4914 46.6948C68.2658 46.2401 68.153 45.7012 68.153 45.0781V45.0728C68.153 44.4569 68.264 43.9198 68.486 43.4614C68.7116 43.0031 69.0303 42.6486 69.442 42.3979C69.8538 42.1437 70.3372 42.0166 70.8922 42.0166C71.4508 42.0166 71.9307 42.1401 72.3317 42.3872C72.7363 42.6307 73.0478 42.9727 73.2663 43.4131C73.4847 43.8535 73.5939 44.3691 73.5939 44.96V45.4004H68.8244V44.5034H72.9386L72.3048 45.3413V44.8096C72.3048 44.4193 72.2458 44.0952 72.1276 43.8374C72.0094 43.5796 71.8447 43.3862 71.6335 43.2573C71.4258 43.1284 71.1841 43.064 70.9084 43.064C70.6326 43.064 70.3874 43.132 70.1725 43.2681C69.9613 43.4006 69.793 43.5975 69.6676 43.8589C69.5459 44.1167 69.485 44.4336 69.485 44.8096V45.3467C69.485 45.7083 69.5459 46.0181 69.6676 46.2759C69.7894 46.5301 69.9613 46.7271 70.1833 46.8667C70.4088 47.0028 70.6756 47.0708 70.9836 47.0708C71.2235 47.0708 71.4294 47.0368 71.6012 46.9688C71.7767 46.8971 71.9181 46.813 72.0255 46.7163C72.133 46.616 72.2082 46.5212 72.2511 46.4316L72.2672 46.394H73.5348L73.5241 46.4424C73.4775 46.6322 73.3916 46.8255 73.2663 47.0225C73.1445 47.2158 72.978 47.3966 72.7668 47.5649C72.5591 47.7297 72.3048 47.8639 72.0041 47.9678C71.7033 48.068 71.3542 48.1182 70.9567 48.1182Z" fill="white" fill-opacity="0.4"/>
<defs>
<clipPath id="clip0_17376_3368">
<rect width="32" height="32" fill="white" transform="translate(45 6)"/>
</clipPath>
</defs>
</svg>
