<svg width="16" height="18" viewBox="0 0 16 18" fill="none" xmlns="http://www.w3.org/2000/svg">
<path d="M1.41748 14.5435C1.02458 14.5435 0.717448 14.4521 0.496094 14.2695C0.27474 14.0814 0.164062 13.8379 0.164062 13.5391C0.164062 13.2624 0.244303 12.994 0.404785 12.7339C0.565267 12.4738 0.764486 12.2192 1.00244 11.9702C1.24593 11.7157 1.48665 11.4666 1.72461 11.2231C1.90723 11.0295 2.04834 10.7832 2.14795 10.4844C2.25309 10.18 2.33057 9.85628 2.38037 9.51318C2.43018 9.16455 2.46615 8.83252 2.48828 8.51709C2.50488 7.42692 2.61833 6.4668 2.82861 5.63672C3.0389 4.80664 3.36816 4.11491 3.81641 3.56152C4.27018 3.00814 4.86507 2.59863 5.60107 2.33301C5.73942 1.79069 6.01888 1.33138 6.43945 0.955078C6.86556 0.578776 7.38298 0.390625 7.9917 0.390625C8.60596 0.390625 9.12337 0.578776 9.54395 0.955078C9.97005 1.33138 10.2523 1.79069 10.3906 2.33301C11.1266 2.59863 11.7188 3.00814 12.167 3.56152C12.6152 4.11491 12.9445 4.80664 13.1548 5.63672C13.3706 6.4668 13.4868 7.42692 13.5034 8.51709C13.5256 8.83252 13.5615 9.16455 13.6113 9.51318C13.6611 9.85628 13.7358 10.18 13.8354 10.4844C13.9406 10.7832 14.0845 11.0295 14.2671 11.2231C14.505 11.4666 14.743 11.7157 14.981 11.9702C15.2244 12.2192 15.4264 12.4738 15.5869 12.7339C15.7474 12.994 15.8276 13.2624 15.8276 13.5391C15.8276 13.8379 15.717 14.0814 15.4956 14.2695C15.2743 14.4521 14.9671 14.5435 14.5742 14.5435H1.41748ZM1.77441 13.29H14.209V13.1904C14.1592 13.1074 14.0762 13.0023 13.96 12.875C13.8493 12.7477 13.7192 12.6066 13.5698 12.4517C13.4259 12.2912 13.2793 12.1307 13.1299 11.9702C12.9805 11.8042 12.8504 11.6133 12.7397 11.3975C12.6291 11.1761 12.535 10.9299 12.4575 10.6587C12.3856 10.382 12.3247 10.0749 12.2749 9.7373C12.2306 9.39421 12.2002 9.02067 12.1836 8.6167C12.1615 7.41032 12.0342 6.45296 11.8018 5.74463C11.5749 5.0363 11.2705 4.51058 10.8887 4.16748C10.5124 3.81885 10.0863 3.58089 9.61035 3.45361C9.51074 3.42594 9.4305 3.38444 9.36963 3.3291C9.31429 3.27376 9.28662 3.19352 9.28662 3.08838C9.27002 2.6512 9.14551 2.29704 8.91309 2.02588C8.6862 1.74919 8.37907 1.61084 7.9917 1.61084C7.60986 1.61084 7.30273 1.74919 7.07031 2.02588C6.84342 2.29704 6.72168 2.6512 6.70508 3.08838C6.69954 3.19352 6.66911 3.27376 6.61377 3.3291C6.55843 3.38444 6.47819 3.42594 6.37305 3.45361C5.89714 3.58089 5.46826 3.81885 5.08643 4.16748C4.71012 4.51058 4.40853 5.0363 4.18164 5.74463C3.95475 6.45296 3.83024 7.41032 3.80811 8.6167C3.78597 9.02067 3.75277 9.39421 3.7085 9.7373C3.66423 10.0749 3.60335 10.382 3.52588 10.6587C3.4484 10.9299 3.35433 11.1761 3.24365 11.3975C3.13298 11.6133 3.00293 11.8042 2.85352 11.9702C2.70964 12.1307 2.56299 12.2912 2.41357 12.4517C2.26969 12.6066 2.13965 12.7477 2.02344 12.875C1.90723 13.0023 1.82422 13.1074 1.77441 13.1904V13.29ZM7.9917 17.54C7.41064 17.54 6.89323 17.3989 6.43945 17.1167C5.98568 16.84 5.62321 16.4748 5.35205 16.021C5.08643 15.5672 4.94255 15.0747 4.92041 14.5435H6.21533C6.243 15.1024 6.42008 15.5479 6.74658 15.8799C7.07861 16.2119 7.49365 16.3779 7.9917 16.3779C8.49528 16.3779 8.91032 16.2119 9.23682 15.8799C9.56331 15.5479 9.74316 15.1024 9.77637 14.5435H11.0713C11.0492 15.0747 10.9025 15.5672 10.6313 16.021C10.3657 16.4803 10.006 16.8483 9.55225 17.125C9.09847 17.4017 8.57829 17.54 7.9917 17.54Z" fill="#A5C3FF"/>
</svg>
