<?xml version="1.0" encoding="utf-8"?>
<svg fill="none" height="57" viewBox="0 0 122 57" width="122" xmlns="http://www.w3.org/2000/svg">
<g clip-path="url(#clip0_17376_3364)">
<path d="M53.2803 26.5723C52.4115 26.5723 51.7585 26.3592 51.3213 25.9331C50.8896 25.5015 50.6738 24.8568 50.6738 23.999V16.1714C50.6738 15.3136 50.8896 14.6717 51.3213 14.2456C51.7585 13.814 52.4115 13.5981 53.2803 13.5981H64.5278C65.3911 13.5981 66.0413 13.814 66.4785 14.2456C66.9157 14.6772 67.1343 15.3192 67.1343 16.1714V17.981H65.7979V16.2461C65.7979 15.8145 65.6844 15.488 65.4575 15.2666C65.2306 15.0452 64.9124 14.9346 64.5029 14.9346H53.2969C52.8818 14.9346 52.5636 15.0452 52.3423 15.2666C52.1209 15.488 52.0103 15.8145 52.0103 16.2461V23.9326C52.0103 24.3643 52.1209 24.6908 52.3423 24.9121C52.5636 25.1279 52.8818 25.2358 53.2969 25.2358H55.3389V26.5723H53.2803ZM57.3809 30.4155C56.512 30.4155 55.859 30.1997 55.4219 29.7681C54.9902 29.342 54.7744 28.7 54.7744 27.8423V20.0146C54.7744 19.1569 54.9902 18.515 55.4219 18.0889C55.859 17.6572 56.512 17.4414 57.3809 17.4414H68.7197C69.583 17.4414 70.2332 17.6572 70.6704 18.0889C71.1076 18.5205 71.3262 19.1624 71.3262 20.0146V27.8423C71.3262 28.7 71.1076 29.342 70.6704 29.7681C70.2332 30.1997 69.583 30.4155 68.7197 30.4155H57.3809ZM57.3975 29.0791H68.6948C69.1043 29.0791 69.4225 28.9684 69.6494 28.7471C69.8763 28.5312 69.9897 28.2075 69.9897 27.7759V20.0894C69.9897 19.6577 69.8763 19.3312 69.6494 19.1099C69.4225 18.8885 69.1043 18.7778 68.6948 18.7778H57.3975C56.9824 18.7778 56.6642 18.8885 56.4429 19.1099C56.2215 19.3312 56.1108 19.6577 56.1108 20.0894V27.7759C56.1108 28.2075 56.2215 28.5312 56.4429 28.7471C56.6642 28.9684 56.9824 29.0791 57.3975 29.0791ZM60.7925 26.8462V21.019C60.7925 20.8309 60.87 20.7064 61.0249 20.6455C61.1854 20.5791 61.3403 20.5929 61.4897 20.687L66.3706 23.5591C66.52 23.6476 66.5947 23.7721 66.5947 23.9326C66.6003 24.0931 66.5283 24.2176 66.3789 24.3062L61.4897 27.1865C61.3403 27.2751 61.1854 27.2889 61.0249 27.228C60.87 27.1616 60.7925 27.0343 60.7925 26.8462Z" fill="#A5C3FF"/>
</g>
<path d="M46.9979 48.1934C46.2639 48.1934 45.6301 48.0286 45.0966 47.6992C44.5666 47.3698 44.1566 46.9025 43.8666 46.2974C43.5801 45.6886 43.4369 44.9671 43.4369 44.1328V44.1221C43.4369 43.2842 43.5801 42.5627 43.8666 41.9575C44.1566 41.3488 44.5666 40.8797 45.0966 40.5503C45.6265 40.2209 46.2585 40.0562 46.9926 40.0562C47.5798 40.0562 48.1098 40.1725 48.5824 40.4053C49.0551 40.6344 49.44 40.9531 49.7372 41.3613C50.0344 41.766 50.2134 42.2314 50.2743 42.7578L50.2689 42.8008H48.9154L48.9101 42.7739C48.8456 42.4696 48.7239 42.2046 48.5448 41.979C48.3658 41.7498 48.1438 41.5726 47.8788 41.4473C47.6138 41.3184 47.3184 41.2539 46.9926 41.2539C46.5557 41.2539 46.1762 41.3703 45.8539 41.603C45.5316 41.8358 45.2828 42.167 45.1073 42.5967C44.9354 43.0228 44.8495 43.5295 44.8495 44.1167V44.1274C44.8495 44.7147 44.9354 45.2231 45.1073 45.6528C45.2828 46.0825 45.5316 46.4137 45.8539 46.6465C46.1762 46.8792 46.5575 46.9956 46.9979 46.9956C47.3274 46.9956 47.6228 46.9383 47.8842 46.8237C48.1492 46.7091 48.3694 46.548 48.5448 46.3403C48.7239 46.1291 48.8456 45.882 48.9101 45.5991L48.9208 45.5669H50.2743V45.6099C50.2063 46.1255 50.0255 46.5767 49.7318 46.9634C49.4382 47.3501 49.0587 47.6527 48.5932 47.8711C48.1277 48.0859 47.5959 48.1934 46.9979 48.1934ZM51.7415 48V42.1294H53.0789V43.0317H53.1703C53.2705 42.7166 53.4496 42.4714 53.7074 42.2959C53.9688 42.1204 54.2928 42.0327 54.6795 42.0327C54.7798 42.0327 54.8783 42.0399 54.9749 42.0542C55.0752 42.0649 55.1576 42.0793 55.222 42.0972V43.2949C55.1146 43.2699 55.0054 43.252 54.8944 43.2412C54.787 43.2269 54.6742 43.2197 54.556 43.2197C54.2588 43.2197 53.9992 43.2752 53.7772 43.3862C53.5552 43.4972 53.3833 43.6566 53.2616 43.8643C53.1398 44.0684 53.0789 44.3101 53.0789 44.5894V48H51.7415ZM58.741 48.1182C58.1573 48.1182 57.656 47.9946 57.2371 47.7476C56.8217 47.5005 56.5012 47.1496 56.2757 46.6948C56.0501 46.2401 55.9373 45.7012 55.9373 45.0781V45.0728C55.9373 44.4569 56.0483 43.9198 56.2703 43.4614C56.4959 43.0031 56.8146 42.6486 57.2263 42.3979C57.6381 42.1437 58.1215 42.0166 58.6765 42.0166C59.2351 42.0166 59.715 42.1401 60.116 42.3872C60.5206 42.6307 60.8321 42.9727 61.0506 43.4131C61.269 43.8535 61.3782 44.3691 61.3782 44.96V45.4004H56.6087V44.5034H60.7229L60.0891 45.3413V44.8096C60.0891 44.4193 60.0301 44.0952 59.9119 43.8374C59.7937 43.5796 59.629 43.3862 59.4178 43.2573C59.2101 43.1284 58.9684 43.064 58.6927 43.064C58.4169 43.064 58.1717 43.132 57.9568 43.2681C57.7456 43.4006 57.5773 43.5975 57.4519 43.8589C57.3302 44.1167 57.2693 44.4336 57.2693 44.8096V45.3467C57.2693 45.7083 57.3302 46.0181 57.4519 46.2759C57.5737 46.5301 57.7456 46.7271 57.9676 46.8667C58.1931 47.0028 58.4599 47.0708 58.7678 47.0708C59.0078 47.0708 59.2136 47.0368 59.3855 46.9688C59.561 46.8971 59.7024 46.813 59.8098 46.7163C59.9173 46.616 59.9925 46.5212 60.0354 46.4316L60.0515 46.394H61.3191L61.3084 46.4424C61.2618 46.6322 61.1759 46.8255 61.0506 47.0225C60.9288 47.2158 60.7623 47.3966 60.5511 47.5649C60.3434 47.7297 60.0891 47.8639 59.7884 47.9678C59.4876 48.068 59.1385 48.1182 58.741 48.1182ZM64.3762 48.0967C64.0074 48.0967 63.6762 48.0251 63.3825 47.8818C63.0925 47.7386 62.8633 47.5363 62.695 47.2749C62.5303 47.0099 62.448 46.6984 62.448 46.3403V46.3296C62.448 45.9823 62.5339 45.6833 62.7058 45.4326C62.8777 45.1784 63.1301 44.9797 63.4631 44.8364C63.7961 44.6932 64.2007 44.609 64.677 44.584L66.8469 44.4497V45.3306L64.865 45.4595C64.489 45.481 64.2115 45.5597 64.0324 45.6958C63.8534 45.8319 63.7639 46.0216 63.7639 46.2651V46.2759C63.7639 46.5265 63.8588 46.7217 64.0486 46.8613C64.2419 47.001 64.4872 47.0708 64.7844 47.0708C65.0529 47.0708 65.2929 47.0171 65.5041 46.9097C65.7154 46.8022 65.8819 46.6572 66.0036 46.4746C66.1254 46.2884 66.1862 46.0789 66.1862 45.8462V43.9878C66.1862 43.6942 66.0931 43.4704 65.907 43.3164C65.7208 43.1589 65.445 43.0801 65.0798 43.0801C64.7754 43.0801 64.5266 43.1338 64.3332 43.2412C64.1399 43.3451 64.0092 43.4937 63.9411 43.687L63.9358 43.7085H62.6736L62.6789 43.6602C62.7219 43.3307 62.8508 43.0425 63.0656 42.7954C63.2805 42.5483 63.5652 42.3568 63.9196 42.2207C64.2741 42.0846 64.6823 42.0166 65.1443 42.0166C65.6527 42.0166 66.0824 42.0954 66.4333 42.2529C66.7842 42.4069 67.051 42.6325 67.2336 42.9297C67.4162 43.2233 67.5075 43.576 67.5075 43.9878V48H66.1862V47.1943H66.0949C65.9875 47.3805 65.8479 47.5417 65.676 47.6777C65.5077 47.8138 65.3143 47.9176 65.0959 47.9893C64.8775 48.0609 64.6376 48.0967 64.3762 48.0967ZM71.4831 48.0269C70.8099 48.0269 70.3247 47.9033 70.0275 47.6562C69.7303 47.4092 69.5817 47.0046 69.5817 46.4424V43.166H68.6686V42.1294H69.5817V40.6899H70.9406V42.1294H72.1759V43.166H70.9406V46.1255C70.9406 46.4155 71.0015 46.6286 71.1232 46.7646C71.2485 46.8971 71.449 46.9634 71.7248 46.9634C71.8214 46.9634 71.9002 46.9616 71.9611 46.958C72.0255 46.9508 72.0972 46.9437 72.1759 46.9365V47.9678C72.0828 47.9857 71.9754 48 71.8537 48.0107C71.7355 48.0215 71.612 48.0269 71.4831 48.0269ZM76.0333 48.1182C75.4496 48.1182 74.9483 47.9946 74.5294 47.7476C74.114 47.5005 73.7935 47.1496 73.568 46.6948C73.3424 46.2401 73.2296 45.7012 73.2296 45.0781V45.0728C73.2296 44.4569 73.3406 43.9198 73.5626 43.4614C73.7882 43.0031 74.1069 42.6486 74.5186 42.3979C74.9304 42.1437 75.4138 42.0166 75.9688 42.0166C76.5274 42.0166 77.0073 42.1401 77.4083 42.3872C77.8129 42.6307 78.1244 42.9727 78.3429 43.4131C78.5613 43.8535 78.6705 44.3691 78.6705 44.96V45.4004H73.901V44.5034H78.0152L77.3814 45.3413V44.8096C77.3814 44.4193 77.3224 44.0952 77.2042 43.8374C77.086 43.5796 76.9213 43.3862 76.7101 43.2573C76.5024 43.1284 76.2607 43.064 75.985 43.064C75.7092 43.064 75.464 43.132 75.2491 43.2681C75.0379 43.4006 74.8696 43.5975 74.7442 43.8589C74.6225 44.1167 74.5616 44.4336 74.5616 44.8096V45.3467C74.5616 45.7083 74.6225 46.0181 74.7442 46.2759C74.866 46.5301 75.0379 46.7271 75.2599 46.8667C75.4854 47.0028 75.7522 47.0708 76.0602 47.0708C76.3001 47.0708 76.506 47.0368 76.6778 46.9688C76.8533 46.8971 76.9947 46.813 77.1021 46.7163C77.2096 46.616 77.2848 46.5212 77.3277 46.4316L77.3438 46.394H78.6114L78.6007 46.4424C78.5541 46.6322 78.4682 46.8255 78.3429 47.0225C78.2211 47.2158 78.0546 47.3966 77.8434 47.5649C77.6357 47.7297 77.3814 47.8639 77.0807 47.9678C76.7799 48.068 76.4308 48.1182 76.0333 48.1182Z" fill="#A5C3FF"/>
<defs>
<clipPath id="clip0_17376_3364">
<rect fill="#A5C3FF" height="32" transform="translate(45 6)" width="32"/>
</clipPath>
</defs>
</svg>