<svg width="16" height="20" viewBox="0 0 16 20" fill="none" xmlns="http://www.w3.org/2000/svg">
<path d="M9.14551 19.7144C9.04036 19.7144 8.94906 19.6784 8.87158 19.6064C8.79964 19.54 8.75537 19.4487 8.73877 19.3325C8.61149 18.425 8.47314 17.6613 8.32373 17.0415C8.17985 16.4272 7.98617 15.9209 7.74268 15.5225C7.49919 15.124 7.17822 14.8058 6.77979 14.5679C6.38688 14.3299 5.8833 14.139 5.26904 13.9951C4.66032 13.8457 3.90771 13.7129 3.01123 13.5967C2.88949 13.5856 2.79264 13.5413 2.7207 13.4639C2.64876 13.3864 2.61279 13.2923 2.61279 13.1816C2.61279 13.0765 2.64876 12.9852 2.7207 12.9077C2.79264 12.8302 2.88949 12.786 3.01123 12.7749C3.90771 12.6753 4.66309 12.5563 5.27734 12.418C5.8916 12.2796 6.39795 12.0887 6.79639 11.8452C7.19482 11.6017 7.51579 11.278 7.75928 10.874C8.00277 10.4701 8.19645 9.95817 8.34033 9.33838C8.48975 8.71305 8.62256 7.94385 8.73877 7.03076C8.75537 6.92008 8.79964 6.83154 8.87158 6.76514C8.94906 6.6932 9.04036 6.65723 9.14551 6.65723C9.25618 6.65723 9.34749 6.6932 9.41943 6.76514C9.49137 6.83154 9.53841 6.92008 9.56055 7.03076C9.67676 7.94385 9.8068 8.71305 9.95068 9.33838C10.1001 9.95817 10.2938 10.4701 10.5317 10.874C10.7752 11.278 11.0962 11.6017 11.4946 11.8452C11.8931 12.0887 12.3994 12.2796 13.0137 12.418C13.6279 12.5563 14.3861 12.6753 15.2881 12.7749C15.4043 12.786 15.4984 12.8302 15.5703 12.9077C15.6423 12.9852 15.6782 13.0765 15.6782 13.1816C15.6782 13.2923 15.6423 13.3864 15.5703 13.4639C15.4984 13.5413 15.4043 13.5856 15.2881 13.5967C14.3861 13.6963 13.6279 13.8153 13.0137 13.9536C12.3994 14.092 11.8931 14.2829 11.4946 14.5264C11.0962 14.7643 10.7752 15.0853 10.5317 15.4893C10.2938 15.8932 10.1001 16.4079 9.95068 17.0332C9.8068 17.6585 9.67676 18.425 9.56055 19.3325C9.53841 19.4487 9.49137 19.54 9.41943 19.6064C9.34749 19.6784 9.25618 19.7144 9.14551 19.7144ZM3.51758 10.5337C3.35156 10.5337 3.25749 10.4424 3.23535 10.2598C3.16895 9.70638 3.09701 9.27197 3.01953 8.95654C2.94759 8.64111 2.82861 8.40592 2.6626 8.25098C2.50212 8.09049 2.25863 7.96875 1.93213 7.88574C1.61117 7.80273 1.16846 7.71419 0.604004 7.62012C0.415853 7.59245 0.321777 7.49837 0.321777 7.33789C0.321777 7.18294 0.404785 7.09163 0.570801 7.06396C1.14079 6.95329 1.58903 6.85645 1.91553 6.77344C2.24202 6.6849 2.48828 6.56315 2.6543 6.4082C2.82031 6.25326 2.94206 6.0236 3.01953 5.71924C3.09701 5.40934 3.16895 4.9777 3.23535 4.42432C3.25749 4.2417 3.35156 4.15039 3.51758 4.15039C3.68359 4.15039 3.77767 4.23893 3.7998 4.41602C3.87174 4.97493 3.94368 5.41488 4.01562 5.73584C4.0931 6.0568 4.21208 6.30029 4.37256 6.46631C4.53857 6.62679 4.78483 6.74577 5.11133 6.82324C5.43783 6.90072 5.88883 6.98096 6.46436 7.06396C6.5363 7.0695 6.5944 7.09717 6.63867 7.14697C6.68848 7.19678 6.71338 7.26042 6.71338 7.33789C6.71338 7.49284 6.63037 7.58691 6.46436 7.62012C5.88883 7.73079 5.43783 7.8304 5.11133 7.91895C4.79036 8.00195 4.54688 8.1237 4.38086 8.28418C4.22038 8.43913 4.1014 8.67155 4.02393 8.98145C3.94645 9.29134 3.87174 9.72298 3.7998 10.2764C3.78874 10.3483 3.7583 10.4092 3.7085 10.459C3.65869 10.5088 3.59505 10.5337 3.51758 10.5337ZM7.53516 4.82275C7.43001 4.82275 7.36914 4.76742 7.35254 4.65674C7.28613 4.31917 7.22803 4.05355 7.17822 3.85986C7.13395 3.66618 7.06201 3.51953 6.9624 3.41992C6.86833 3.31478 6.72168 3.23177 6.52246 3.1709C6.32324 3.11003 6.04378 3.04915 5.68408 2.98828C5.5734 2.96615 5.51807 2.90251 5.51807 2.79736C5.51807 2.69775 5.5734 2.63688 5.68408 2.61475C6.04378 2.54834 6.32324 2.48747 6.52246 2.43213C6.72168 2.37126 6.86833 2.29102 6.9624 2.19141C7.06201 2.08626 7.13395 1.93685 7.17822 1.74316C7.22803 1.54948 7.28613 1.28385 7.35254 0.946289C7.36914 0.835612 7.43001 0.780273 7.53516 0.780273C7.63477 0.780273 7.69564 0.835612 7.71777 0.946289C7.77865 1.28385 7.83398 1.54948 7.88379 1.74316C7.93359 1.93685 8.00553 2.08626 8.09961 2.19141C8.19922 2.29102 8.34863 2.37126 8.54785 2.43213C8.74707 2.48747 9.02653 2.54834 9.38623 2.61475C9.49691 2.63688 9.55225 2.69775 9.55225 2.79736C9.55225 2.90251 9.49691 2.96615 9.38623 2.98828C9.02653 3.04915 8.74707 3.11003 8.54785 3.1709C8.34863 3.23177 8.19922 3.31478 8.09961 3.41992C8.00553 3.51953 7.93359 3.66618 7.88379 3.85986C7.83398 4.05355 7.77865 4.31917 7.71777 4.65674C7.69564 4.76742 7.63477 4.82275 7.53516 4.82275Z" fill="#EFBBFA"/>
</svg>
