<svg width="16" height="20" viewBox="0 0 16 20" fill="none" xmlns="http://www.w3.org/2000/svg">
<path d="M9.14551 19.9053C9.04036 19.9053 8.94906 19.8693 8.87158 19.7974C8.79964 19.7254 8.75537 19.6341 8.73877 19.5234C8.61149 18.6159 8.47314 17.8522 8.32373 17.2324C8.17432 16.6126 7.97786 16.1063 7.73438 15.7134C7.49642 15.3149 7.17822 14.9967 6.77979 14.7588C6.38688 14.5153 5.8833 14.3216 5.26904 14.1777C4.65479 14.0339 3.89941 13.9038 3.00293 13.7876C2.88672 13.771 2.79264 13.7267 2.7207 13.6548C2.64876 13.5773 2.61279 13.4832 2.61279 13.3726C2.61279 13.2619 2.64876 13.1706 2.7207 13.0986C2.79264 13.0212 2.88672 12.9741 3.00293 12.9575C3.90495 12.8579 4.66309 12.7389 5.27734 12.6006C5.8916 12.4622 6.39795 12.2741 6.79639 12.0361C7.19482 11.7926 7.51302 11.4689 7.75098 11.0649C7.99447 10.661 8.18815 10.1463 8.33203 9.521C8.48145 8.89567 8.61702 8.12923 8.73877 7.22168C8.75537 7.111 8.79964 7.02246 8.87158 6.95605C8.94906 6.88411 9.04036 6.84814 9.14551 6.84814C9.25065 6.84814 9.33919 6.88411 9.41113 6.95605C9.48861 7.02246 9.53564 7.111 9.55225 7.22168C9.67399 8.12923 9.8068 8.89567 9.95068 9.521C10.1001 10.1463 10.2938 10.661 10.5317 11.0649C10.7752 11.4689 11.0962 11.7926 11.4946 12.0361C11.8931 12.2741 12.3994 12.4622 13.0137 12.6006C13.6279 12.7389 14.3861 12.8579 15.2881 12.9575C15.4043 12.9741 15.4984 13.0212 15.5703 13.0986C15.6423 13.1706 15.6782 13.2619 15.6782 13.3726C15.6782 13.4832 15.6423 13.5773 15.5703 13.6548C15.4984 13.7267 15.4043 13.771 15.2881 13.7876C14.3861 13.8872 13.6279 14.0062 13.0137 14.1445C12.3994 14.2829 11.8931 14.4738 11.4946 14.7173C11.0962 14.9552 10.7752 15.2762 10.5317 15.6802C10.2938 16.0841 10.1001 16.5988 9.95068 17.2241C9.8068 17.8494 9.67399 18.6159 9.55225 19.5234C9.53564 19.6341 9.48861 19.7254 9.41113 19.7974C9.33919 19.8693 9.25065 19.9053 9.14551 19.9053ZM3.51758 10.7163C3.35156 10.7163 3.25749 10.6278 3.23535 10.4507C3.16895 9.8973 3.09701 9.46289 3.01953 9.14746C2.94759 8.83203 2.82861 8.59408 2.6626 8.43359C2.50212 8.27311 2.25863 8.15137 1.93213 8.06836C1.61117 7.98535 1.16846 7.89958 0.604004 7.81104C0.415853 7.78337 0.321777 7.68929 0.321777 7.52881C0.321777 7.37386 0.404785 7.27979 0.570801 7.24658C1.14079 7.14144 1.58903 7.04736 1.91553 6.96436C2.24202 6.87581 2.48828 6.75407 2.6543 6.59912C2.82031 6.44417 2.94206 6.21452 3.01953 5.91016C3.09701 5.60026 3.16895 5.16585 3.23535 4.60693C3.25749 4.42985 3.35156 4.34131 3.51758 4.34131C3.68359 4.34131 3.77767 4.42708 3.7998 4.59863C3.87174 5.16309 3.94368 5.60579 4.01562 5.92676C4.0931 6.24772 4.21208 6.48844 4.37256 6.64893C4.53857 6.80941 4.78483 6.93115 5.11133 7.01416C5.43783 7.09163 5.88883 7.16911 6.46436 7.24658C6.5363 7.25765 6.5944 7.28809 6.63867 7.33789C6.68848 7.3877 6.71338 7.45133 6.71338 7.52881C6.71338 7.68376 6.63037 7.77783 6.46436 7.81104C5.88883 7.92171 5.43783 8.02132 5.11133 8.10986C4.79036 8.19287 4.54688 8.31462 4.38086 8.4751C4.22038 8.63005 4.1014 8.86247 4.02393 9.17236C3.94645 9.48226 3.87174 9.9139 3.7998 10.4673C3.78874 10.5392 3.7583 10.6001 3.7085 10.6499C3.65869 10.6942 3.59505 10.7163 3.51758 10.7163ZM7.53516 5.00537C7.44108 5.00537 7.38298 4.95557 7.36084 4.85596C7.29443 4.50732 7.23633 4.23617 7.18652 4.04248C7.13672 3.8488 7.06201 3.70215 6.9624 3.60254C6.86279 3.4974 6.71338 3.41715 6.51416 3.36182C6.31494 3.30094 6.03548 3.23454 5.67578 3.1626C5.57064 3.14046 5.51807 3.08236 5.51807 2.98828C5.51807 2.89421 5.57064 2.8361 5.67578 2.81396C6.03548 2.74202 6.31217 2.67839 6.50586 2.62305C6.70508 2.56217 6.85173 2.48193 6.9458 2.38232C7.04541 2.27718 7.12012 2.12777 7.16992 1.93408C7.22526 1.73486 7.2889 1.4637 7.36084 1.12061C7.38298 1.021 7.44108 0.971191 7.53516 0.971191C7.62923 0.971191 7.68734 1.021 7.70947 1.12061C7.78141 1.4637 7.84229 1.73486 7.89209 1.93408C7.94743 2.12777 8.02214 2.27718 8.11621 2.38232C8.21582 2.48193 8.36247 2.56217 8.55615 2.62305C8.75537 2.67839 9.03483 2.74202 9.39453 2.81396C9.49967 2.8361 9.55225 2.89421 9.55225 2.98828C9.55225 3.08236 9.49967 3.14046 9.39453 3.1626C9.03483 3.23454 8.75537 3.30094 8.55615 3.36182C8.35693 3.41715 8.20752 3.49463 8.10791 3.59424C8.0083 3.69385 7.93083 3.84326 7.87549 4.04248C7.82568 4.23617 7.77035 4.50732 7.70947 4.85596C7.68734 4.95557 7.62923 5.00537 7.53516 5.00537Z" fill="#A5C3FF"/>
</svg>
