<svg width="22" height="15" viewBox="0 0 22 15" fill="none" xmlns="http://www.w3.org/2000/svg">
<path d="M16.9683 14.5479H5.53809C4.82975 14.5479 4.17399 14.4289 3.5708 14.1909C2.96761 13.953 2.43913 13.6292 1.98535 13.2197C1.53711 12.8047 1.18848 12.326 0.939453 11.7837C0.69043 11.2414 0.565918 10.6659 0.565918 10.0571C0.565918 9.382 0.687663 8.75944 0.931152 8.18945C1.18018 7.61947 1.53158 7.14632 1.98535 6.77002C2.44466 6.39372 2.98698 6.15576 3.6123 6.05615C3.62337 5.4751 3.75618 4.95215 4.01074 4.4873C4.2653 4.01693 4.6001 3.62956 5.01514 3.3252C5.43018 3.0153 5.88949 2.81055 6.39307 2.71094C6.90218 2.60579 7.4113 2.62793 7.92041 2.77734C8.25244 2.29036 8.65088 1.84766 9.11572 1.44922C9.5861 1.04525 10.1229 0.724284 10.7261 0.486328C11.3348 0.242839 12.0155 0.121094 12.7681 0.121094C13.6203 0.121094 14.4116 0.278809 15.1421 0.594238C15.8781 0.904134 16.52 1.34684 17.0679 1.92236C17.6213 2.49235 18.0501 3.16748 18.3545 3.94775C18.6589 4.72249 18.811 5.57194 18.811 6.49609C19.3534 6.72298 19.821 7.03564 20.2139 7.43408C20.6068 7.82699 20.9084 8.28076 21.1187 8.79541C21.3289 9.30452 21.4341 9.84961 21.4341 10.4307C21.4341 11.0007 21.3206 11.5347 21.0938 12.0327C20.8669 12.5308 20.5487 12.9679 20.1392 13.3442C19.7352 13.7205 19.262 14.0138 18.7197 14.2241C18.1774 14.4399 17.5936 14.5479 16.9683 14.5479ZM16.9683 13.2114C17.5549 13.2114 18.0833 13.0869 18.5537 12.8379C19.0296 12.5889 19.4059 12.2541 19.6826 11.8335C19.9593 11.4129 20.0977 10.9453 20.0977 10.4307C20.0977 9.67806 19.8708 9.04167 19.417 8.52148C18.9688 8.0013 18.3683 7.6582 17.6157 7.49219C17.5161 7.47005 17.4718 7.40641 17.4829 7.30127C17.4995 7.10758 17.5106 6.9056 17.5161 6.69531C17.5272 6.47949 17.5272 6.27474 17.5161 6.08105C17.4718 5.26204 17.245 4.50114 16.8354 3.79834C16.4259 3.09554 15.8726 2.53109 15.1753 2.10498C14.478 1.67334 13.6756 1.45752 12.7681 1.45752C12.0542 1.45752 11.4316 1.5765 10.9004 1.81445C10.3747 2.04688 9.92367 2.3623 9.54736 2.76074C9.17106 3.15918 8.84733 3.59635 8.57617 4.07227C8.5319 4.15527 8.46273 4.18294 8.36865 4.15527C7.94255 4.01693 7.51921 3.96436 7.09863 3.99756C6.68359 4.02523 6.30452 4.14974 5.96143 4.37109C5.61833 4.58691 5.34163 4.90511 5.13135 5.32568C4.9266 5.74072 4.82422 6.26921 4.82422 6.91113C4.82422 7.02181 4.77165 7.07715 4.6665 7.07715C4.07992 7.07715 3.5791 7.20996 3.16406 7.47559C2.75456 7.74121 2.44189 8.10091 2.22607 8.55469C2.01025 9.00293 1.90234 9.50374 1.90234 10.0571C1.90234 10.6216 2.06006 11.1445 2.37549 11.626C2.69092 12.1019 3.12256 12.4865 3.67041 12.7798C4.21826 13.0675 4.84082 13.2114 5.53809 13.2114H16.9683ZM8.05322 8.35547C8.05322 7.74121 8.20264 7.18783 8.50146 6.69531C8.80029 6.19727 9.1932 5.80436 9.68018 5.5166C10.1672 5.22331 10.6929 5.07666 11.2573 5.07666C11.2905 5.07666 11.3237 5.07943 11.3569 5.08496C11.3957 5.08496 11.4289 5.08773 11.4565 5.09326L10.9336 4.55371C10.8893 4.50944 10.8534 4.45687 10.8257 4.396C10.8035 4.33512 10.7925 4.27425 10.7925 4.21338C10.7925 4.08057 10.8368 3.96712 10.9253 3.87305C11.0194 3.77344 11.1328 3.72363 11.2656 3.72363C11.332 3.72363 11.3957 3.73747 11.4565 3.76514C11.5229 3.79281 11.5755 3.83154 11.6143 3.88135L13.0503 5.34229C13.1388 5.43083 13.1831 5.54704 13.1831 5.69092C13.1886 5.82926 13.1444 5.94548 13.0503 6.03955L11.5977 7.49219C11.5091 7.58073 11.4012 7.625 11.2739 7.625C11.1411 7.625 11.0277 7.58073 10.9336 7.49219C10.8395 7.39811 10.7925 7.28467 10.7925 7.15186C10.7925 7.02458 10.8423 6.91113 10.9419 6.81152L11.6641 6.09766C11.6253 6.09212 11.5811 6.08659 11.5312 6.08105C11.487 6.07552 11.4427 6.07275 11.3984 6.07275C10.9668 6.07275 10.5767 6.1779 10.228 6.38818C9.87939 6.59294 9.59993 6.86963 9.38965 7.21826C9.1849 7.56689 9.08252 7.95426 9.08252 8.38037C9.08252 8.81201 9.1849 9.20492 9.38965 9.55908C9.59993 9.90771 9.87939 10.1872 10.228 10.3975C10.5767 10.6022 10.9668 10.7046 11.3984 10.7046C11.8245 10.7046 12.2119 10.6022 12.5605 10.3975C12.9092 10.1872 13.1859 9.90771 13.3906 9.55908C13.6009 9.20492 13.7061 8.81201 13.7061 8.38037C13.7061 8.24202 13.7559 8.12305 13.8555 8.02344C13.9606 7.92383 14.0824 7.87402 14.2207 7.87402C14.359 7.87402 14.478 7.92383 14.5776 8.02344C14.6828 8.12305 14.7354 8.24202 14.7354 8.38037C14.7354 9.00016 14.5859 9.56462 14.2871 10.0737C13.9883 10.5773 13.5843 10.9813 13.0752 11.2856C12.5716 11.5845 12.0127 11.7339 11.3984 11.7339C10.7786 11.7339 10.2142 11.5845 9.70508 11.2856C9.2015 10.9813 8.80029 10.5745 8.50146 10.0654C8.20264 9.55632 8.05322 8.98633 8.05322 8.35547Z" fill="#EFBBFA"/>
</svg>
