<svg width="44" height="30" viewBox="0 0 44 30" fill="none" xmlns="http://www.w3.org/2000/svg">
<path d="M0 0H44V30H12.8C8.31958 30 6.07937 30 4.36808 29.1281C2.86278 28.3611 1.63893 27.1372 0.871948 25.6319C0 23.9206 0 21.6804 0 17.2V0Z" fill="#EFBBFA"/>
<g clip-path="url(#clip0_17393_5746)">
<path d="M20.2568 22.3364C19.9303 22.3364 19.6426 22.1759 19.3936 21.855L15.0854 16.3682C15.0024 16.2686 14.9416 16.1689 14.9028 16.0693C14.8641 15.9642 14.8447 15.8618 14.8447 15.7622C14.8447 15.5353 14.9194 15.3499 15.0688 15.2061C15.2183 15.0566 15.4092 14.9819 15.6416 14.9819C15.9183 14.9819 16.1562 15.1175 16.3555 15.3887L20.2236 20.4521L27.6777 8.57373C27.7773 8.41878 27.8797 8.31087 27.9849 8.25C28.09 8.18359 28.2256 8.15039 28.3916 8.15039C28.6185 8.15039 28.8011 8.21956 28.9395 8.35791C29.0778 8.49626 29.147 8.67887 29.147 8.90576C29.147 9.00537 29.1304 9.10498 29.0972 9.20459C29.064 9.29867 29.0114 9.40381 28.9395 9.52002L21.0952 21.8716C20.8905 22.1815 20.611 22.3364 20.2568 22.3364Z" fill="#380721"/>
</g>
<defs>
<clipPath id="clip0_17393_5746">
<rect width="32" height="30" fill="white" transform="translate(6)"/>
</clipPath>
</defs>
</svg>
