<svg width="24" height="24" viewBox="0 0 24 24" fill="none" xmlns="http://www.w3.org/2000/svg">
<g clip-path="url(#clip0_17335_4899)">
<path d="M12.8086 17.916C12.7344 17.916 12.6699 17.8906 12.6152 17.8398C12.5645 17.793 12.5332 17.7285 12.5215 17.6465C12.4316 17.0059 12.334 16.4668 12.2285 16.0293C12.127 15.5957 11.9902 15.2383 11.8184 14.957C11.6465 14.6758 11.4199 14.4512 11.1387 14.2832C10.8613 14.1152 10.5059 13.9805 10.0723 13.8789C9.64258 13.7734 9.11133 13.6797 8.47852 13.5977C8.39258 13.5898 8.32422 13.5586 8.27344 13.5039C8.22266 13.4492 8.19727 13.3828 8.19727 13.3047C8.19727 13.2305 8.22266 13.166 8.27344 13.1113C8.32422 13.0566 8.39258 13.0254 8.47852 13.0176C9.11133 12.9473 9.64453 12.8633 10.0781 12.7656C10.5117 12.668 10.8691 12.5332 11.1504 12.3613C11.4316 12.1895 11.6582 11.9609 11.8301 11.6758C12.002 11.3906 12.1387 11.0293 12.2402 10.5918C12.3457 10.1504 12.4395 9.60742 12.5215 8.96289C12.5332 8.88477 12.5645 8.82227 12.6152 8.77539C12.6699 8.72461 12.7344 8.69922 12.8086 8.69922C12.8867 8.69922 12.9512 8.72461 13.002 8.77539C13.0527 8.82227 13.0859 8.88477 13.1016 8.96289C13.1836 9.60742 13.2754 10.1504 13.377 10.5918C13.4824 11.0293 13.6191 11.3906 13.7871 11.6758C13.959 11.9609 14.1855 12.1895 14.4668 12.3613C14.748 12.5332 15.1055 12.668 15.5391 12.7656C15.9727 12.8633 16.5078 12.9473 17.1445 13.0176C17.2266 13.0254 17.293 13.0566 17.3438 13.1113C17.3945 13.166 17.4199 13.2305 17.4199 13.3047C17.4199 13.3828 17.3945 13.4492 17.3438 13.5039C17.293 13.5586 17.2266 13.5898 17.1445 13.5977C16.5078 13.668 15.9727 13.752 15.5391 13.8496C15.1055 13.9473 14.748 14.082 14.4668 14.2539C14.1855 14.4219 13.959 14.6484 13.7871 14.9336C13.6191 15.2188 13.4824 15.582 13.377 16.0234C13.2754 16.4648 13.1836 17.0059 13.1016 17.6465C13.0859 17.7285 13.0527 17.793 13.002 17.8398C12.9512 17.8906 12.8867 17.916 12.8086 17.916ZM8.83594 11.4355C8.71875 11.4355 8.65234 11.3711 8.63672 11.2422C8.58984 10.8516 8.53906 10.5449 8.48438 10.3223C8.43359 10.0996 8.34961 9.93359 8.23242 9.82422C8.11914 9.71094 7.94727 9.625 7.7168 9.56641C7.49023 9.50781 7.17773 9.44531 6.7793 9.37891C6.64648 9.35938 6.58008 9.29297 6.58008 9.17969C6.58008 9.07031 6.63867 9.00586 6.75586 8.98633C7.1582 8.9082 7.47461 8.83984 7.70508 8.78125C7.93555 8.71875 8.10938 8.63281 8.22656 8.52344C8.34375 8.41406 8.42969 8.25195 8.48438 8.03711C8.53906 7.81836 8.58984 7.51367 8.63672 7.12305C8.65234 6.99414 8.71875 6.92969 8.83594 6.92969C8.95312 6.92969 9.01953 6.99219 9.03516 7.11719C9.08594 7.51172 9.13672 7.82227 9.1875 8.04883C9.24219 8.27539 9.32617 8.44727 9.43945 8.56445C9.55664 8.67773 9.73047 8.76172 9.96094 8.81641C10.1914 8.87109 10.5098 8.92773 10.916 8.98633C10.9668 8.99023 11.0078 9.00977 11.0391 9.04492C11.0742 9.08008 11.0918 9.125 11.0918 9.17969C11.0918 9.28906 11.0332 9.35547 10.916 9.37891C10.5098 9.45703 10.1914 9.52734 9.96094 9.58984C9.73438 9.64844 9.5625 9.73438 9.44531 9.84766C9.33203 9.95703 9.24805 10.1211 9.19336 10.3398C9.13867 10.5586 9.08594 10.8633 9.03516 11.2539C9.02734 11.3047 9.00586 11.3477 8.9707 11.3828C8.93555 11.418 8.89062 11.4355 8.83594 11.4355ZM11.6719 7.4043C11.5977 7.4043 11.5547 7.36523 11.543 7.28711C11.4961 7.04883 11.4551 6.86133 11.4199 6.72461C11.3887 6.58789 11.3379 6.48438 11.2676 6.41406C11.2012 6.33984 11.0977 6.28125 10.957 6.23828C10.8164 6.19531 10.6191 6.15234 10.3652 6.10938C10.2871 6.09375 10.248 6.04883 10.248 5.97461C10.248 5.9043 10.2871 5.86133 10.3652 5.8457C10.6191 5.79883 10.8164 5.75586 10.957 5.7168C11.0977 5.67383 11.2012 5.61719 11.2676 5.54688C11.3379 5.47266 11.3887 5.36719 11.4199 5.23047C11.4551 5.09375 11.4961 4.90625 11.543 4.66797C11.5547 4.58984 11.5977 4.55078 11.6719 4.55078C11.7422 4.55078 11.7852 4.58984 11.8008 4.66797C11.8438 4.90625 11.8828 5.09375 11.918 5.23047C11.9531 5.36719 12.0039 5.47266 12.0703 5.54688C12.1406 5.61719 12.2461 5.67383 12.3867 5.7168C12.5273 5.75586 12.7246 5.79883 12.9785 5.8457C13.0566 5.86133 13.0957 5.9043 13.0957 5.97461C13.0957 6.04883 13.0566 6.09375 12.9785 6.10938C12.7246 6.15234 12.5273 6.19531 12.3867 6.23828C12.2461 6.28125 12.1406 6.33984 12.0703 6.41406C12.0039 6.48438 11.9531 6.58789 11.918 6.72461C11.8828 6.86133 11.8438 7.04883 11.8008 7.28711C11.7852 7.36523 11.7422 7.4043 11.6719 7.4043Z" fill="white"/>
</g>
<defs>
<clipPath id="clip0_17335_4899">
<rect width="24" height="24" fill="white"/>
</clipPath>
</defs>
</svg>
