<svg width="122" height="57" viewBox="0 0 122 57" fill="none" xmlns="http://www.w3.org/2000/svg">
<g clip-path="url(#clip0_17376_3182)">
<path d="M60.1616 30.8804C59.8407 30.8804 59.564 30.7891 59.3315 30.6064C59.1047 30.4294 58.9552 30.1859 58.8833 29.876L58.5181 28.3237L58.2524 28.2324L56.9077 29.0625C56.6366 29.234 56.3543 29.3005 56.061 29.2617C55.7677 29.223 55.5076 29.0902 55.2808 28.8633L54.127 27.7095C53.8945 27.4826 53.759 27.2225 53.7202 26.9292C53.687 26.6359 53.7562 26.3564 53.9277 26.0908L54.7661 24.7461L54.6748 24.4971L53.1226 24.1318C52.8182 24.0599 52.5747 23.9077 52.3921 23.6753C52.2095 23.4429 52.1182 23.1689 52.1182 22.8535V21.21C52.1182 20.8945 52.2067 20.6206 52.3838 20.3882C52.5664 20.1558 52.8127 20.0036 53.1226 19.9316L54.6582 19.5581L54.7578 19.2925L53.9194 17.9478C53.7479 17.6821 53.6787 17.4054 53.7119 17.1177C53.7507 16.8244 53.8862 16.5615 54.1187 16.3291L55.2725 15.167C55.4993 14.9456 55.7567 14.8156 56.0444 14.7769C56.3377 14.7381 56.62 14.8018 56.8911 14.9678L58.2358 15.7979L58.5181 15.6899L58.8833 14.1377C58.9552 13.8333 59.1047 13.5898 59.3315 13.4072C59.564 13.2246 59.8407 13.1333 60.1616 13.1333H61.8384C62.1593 13.1333 62.4333 13.2246 62.6602 13.4072C62.8926 13.5898 63.0448 13.8333 63.1167 14.1377L63.4736 15.6899L63.7559 15.7979L65.1089 14.9678C65.3745 14.8018 65.654 14.7381 65.9473 14.7769C66.2406 14.8156 66.4979 14.9456 66.7192 15.167L67.8813 16.3291C68.1082 16.5615 68.241 16.8244 68.2798 17.1177C68.3185 17.4054 68.2521 17.6821 68.0806 17.9478L67.2339 19.2925L67.3418 19.5581L68.8774 19.9316C69.1818 20.0036 69.4253 20.1558 69.6079 20.3882C69.7905 20.6206 69.8818 20.8945 69.8818 21.21V22.8535C69.8818 23.1689 69.7905 23.4429 69.6079 23.6753C69.4253 23.9077 69.1818 24.0599 68.8774 24.1318L67.3252 24.4971L67.2256 24.7461L68.0723 26.0908C68.2438 26.3564 68.3102 26.6359 68.2715 26.9292C68.2327 27.2225 68.0999 27.4826 67.873 27.7095L66.7109 28.8633C66.484 29.0902 66.224 29.223 65.9307 29.2617C65.6374 29.3005 65.3579 29.234 65.0923 29.0625L63.7393 28.2324L63.4736 28.3237L63.1167 29.876C63.0448 30.1859 62.8926 30.4294 62.6602 30.6064C62.4333 30.7891 62.1593 30.8804 61.8384 30.8804H60.1616ZM60.2944 29.5854H61.7056C61.8439 29.5854 61.9214 29.5218 61.938 29.3945L62.4443 27.3359C62.6989 27.2751 62.9396 27.1976 63.1665 27.1035C63.3934 27.0039 63.5954 26.8988 63.7725 26.7881L65.582 27.9004C65.6872 27.9723 65.7923 27.9585 65.8975 27.8589L66.8687 26.8794C66.9627 26.7964 66.9738 26.694 66.9019 26.5723L65.7896 24.7793C65.8892 24.6022 65.986 24.4002 66.0801 24.1733C66.1797 23.9465 66.2627 23.7057 66.3291 23.4512L68.396 22.9614C68.5233 22.9393 68.5869 22.859 68.5869 22.7207V21.3345C68.5869 21.2017 68.5233 21.1214 68.396 21.0938L66.3374 20.5957C66.271 20.3245 66.1852 20.0728 66.0801 19.8403C65.9749 19.6079 65.8836 19.4142 65.8062 19.2593L66.9102 17.4663C66.9876 17.3446 66.9793 17.2367 66.8853 17.1426L65.9058 16.1797C65.8062 16.0911 65.6982 16.0773 65.582 16.1382L63.7808 17.2339C63.5981 17.1343 63.3934 17.0374 63.1665 16.9434C62.9451 16.8438 62.7044 16.7607 62.4443 16.6943L61.938 14.6191C61.9214 14.4919 61.8439 14.4282 61.7056 14.4282H60.2944C60.1561 14.4282 60.0758 14.4919 60.0537 14.6191L59.564 16.6777C59.3149 16.7441 59.0687 16.8271 58.8252 16.9268C58.5872 17.0264 58.3797 17.126 58.2026 17.2256L56.4097 16.1382C56.299 16.0773 56.1938 16.0911 56.0942 16.1797L55.1064 17.1426C55.0179 17.2367 55.0096 17.3446 55.0815 17.4663L56.1855 19.2593C56.1136 19.4142 56.0223 19.6079 55.9116 19.8403C55.8065 20.0728 55.7207 20.3245 55.6543 20.5957L53.604 21.0938C53.4767 21.1214 53.4131 21.2017 53.4131 21.3345V22.7207C53.4131 22.859 53.4767 22.9393 53.604 22.9614L55.6626 23.4512C55.729 23.7057 55.812 23.9465 55.9116 24.1733C56.0112 24.4002 56.1081 24.6022 56.2021 24.7793L55.0898 26.5723C55.0234 26.694 55.0345 26.7964 55.123 26.8794L56.1025 27.8589C56.2077 27.9585 56.3101 27.9723 56.4097 27.9004L58.2192 26.7881C58.3963 26.8988 58.5983 27.0039 58.8252 27.1035C59.0576 27.1976 59.3011 27.2751 59.5557 27.3359L60.0537 29.3945C60.0758 29.5218 60.1561 29.5854 60.2944 29.5854ZM61 25.1777C60.4189 25.1777 59.8877 25.0339 59.4062 24.7461C58.9303 24.4583 58.5485 24.0765 58.2607 23.6006C57.973 23.1191 57.8291 22.5879 57.8291 22.0068C57.8291 21.4313 57.973 20.9056 58.2607 20.4297C58.5485 19.9482 58.9303 19.5664 59.4062 19.2842C59.8877 18.9964 60.4189 18.8525 61 18.8525C61.5811 18.8525 62.1095 18.9964 62.5854 19.2842C63.0669 19.5664 63.4487 19.9482 63.731 20.4297C64.0187 20.9056 64.1626 21.4313 64.1626 22.0068C64.1626 22.5879 64.0187 23.1191 63.731 23.6006C63.4487 24.082 63.0669 24.4666 62.5854 24.7544C62.1095 25.0366 61.5811 25.1777 61 25.1777ZM61 23.8911C61.3376 23.8911 61.6475 23.8053 61.9297 23.6338C62.2119 23.4622 62.436 23.2354 62.6021 22.9531C62.7736 22.6654 62.8594 22.3499 62.8594 22.0068C62.8594 21.6637 62.7736 21.3511 62.6021 21.0688C62.436 20.7866 62.2119 20.5625 61.9297 20.3965C61.6475 20.2249 61.3376 20.1392 61 20.1392C60.6569 20.1392 60.3415 20.2249 60.0537 20.3965C59.7715 20.5625 59.5446 20.7866 59.373 21.0688C59.207 21.3511 59.124 21.6637 59.124 22.0068C59.124 22.3555 59.207 22.6737 59.373 22.9614C59.5446 23.2437 59.7715 23.4705 60.0537 23.6421C60.3415 23.8081 60.6569 23.8911 61 23.8911Z" fill="white" fill-opacity="0.4"/>
</g>
<path d="M41.83 48.1934C41.2285 48.1934 40.7057 48.1003 40.2617 47.9141C39.8213 47.7279 39.4739 47.4683 39.2197 47.1353C38.9655 46.8022 38.8222 46.4137 38.79 45.9697L38.7846 45.8945H40.1274L40.1328 45.9482C40.1543 46.1667 40.2402 46.3564 40.3906 46.5176C40.5446 46.6787 40.7487 46.8058 41.0029 46.8989C41.2571 46.9884 41.5472 47.0332 41.873 47.0332C42.1845 47.0332 42.4602 46.9849 42.7002 46.8882C42.9401 46.7915 43.1281 46.659 43.2641 46.4907C43.4002 46.3188 43.4682 46.1219 43.4682 45.8999V45.8945C43.4682 45.6152 43.359 45.3879 43.1406 45.2124C42.9222 45.0334 42.5623 44.8901 42.061 44.7827L41.2285 44.6108C40.4336 44.4425 39.8553 44.174 39.4936 43.8052C39.1355 43.4328 38.9565 42.9583 38.9565 42.3818V42.3765C38.9565 41.9146 39.0782 41.5099 39.3217 41.1626C39.5688 40.8153 39.9072 40.5449 40.3369 40.3516C40.7701 40.1546 41.2661 40.0562 41.8247 40.0562C42.3976 40.0562 42.8935 40.1528 43.3125 40.3462C43.7314 40.536 44.0608 40.7956 44.3007 41.125C44.5407 41.4544 44.6749 41.8268 44.7036 42.2422L44.7089 42.312H43.3877L43.3769 42.2476C43.3447 42.0435 43.2605 41.8662 43.1245 41.7158C42.992 41.5618 42.8147 41.4401 42.5927 41.3506C42.3707 41.2611 42.1111 41.2163 41.8139 41.2163C41.531 41.2163 41.2786 41.2611 41.0566 41.3506C40.8346 41.4365 40.6591 41.5583 40.5302 41.7158C40.4049 41.8734 40.3422 42.0632 40.3422 42.2852V42.2905C40.3422 42.5627 40.4479 42.7882 40.6591 42.9673C40.874 43.1463 41.2231 43.286 41.7065 43.3862L42.539 43.5635C43.0833 43.6781 43.5255 43.8302 43.8657 44.02C44.2059 44.2098 44.4547 44.4461 44.6123 44.729C44.7734 45.0083 44.854 45.3449 44.854 45.7388V45.7441C44.854 46.2454 44.7304 46.6787 44.4834 47.0439C44.2399 47.4092 43.8907 47.6921 43.436 47.8926C42.9848 48.0931 42.4495 48.1934 41.83 48.1934ZM48.8456 48.1182C48.2619 48.1182 47.7606 47.9946 47.3417 47.7476C46.9263 47.5005 46.6059 47.1496 46.3803 46.6948C46.1547 46.2401 46.0419 45.7012 46.0419 45.0781V45.0728C46.0419 44.4569 46.1529 43.9198 46.3749 43.4614C46.6005 43.0031 46.9192 42.6486 47.331 42.3979C47.7427 42.1437 48.2261 42.0166 48.7812 42.0166C49.3397 42.0166 49.8196 42.1401 50.2206 42.3872C50.6252 42.6307 50.9368 42.9727 51.1552 43.4131C51.3736 43.8535 51.4828 44.3691 51.4828 44.96V45.4004H46.7133V44.5034H50.8275L50.1938 45.3413V44.8096C50.1938 44.4193 50.1347 44.0952 50.0165 43.8374C49.8983 43.5796 49.7336 43.3862 49.5224 43.2573C49.3147 43.1284 49.073 43.064 48.7973 43.064C48.5216 43.064 48.2763 43.132 48.0614 43.2681C47.8502 43.4006 47.6819 43.5975 47.5565 43.8589C47.4348 44.1167 47.3739 44.4336 47.3739 44.8096V45.3467C47.3739 45.7083 47.4348 46.0181 47.5565 46.2759C47.6783 46.5301 47.8502 46.7271 48.0722 46.8667C48.2978 47.0028 48.5645 47.0708 48.8725 47.0708C49.1124 47.0708 49.3183 47.0368 49.4901 46.9688C49.6656 46.8971 49.807 46.813 49.9145 46.7163C50.0219 46.616 50.0971 46.5212 50.14 46.4316L50.1562 46.394H51.4237L51.413 46.4424C51.3664 46.6322 51.2805 46.8255 51.1552 47.0225C51.0334 47.2158 50.8669 47.3966 50.6557 47.5649C50.448 47.7297 50.1938 47.8639 49.893 47.9678C49.5922 48.068 49.2431 48.1182 48.8456 48.1182ZM55.1898 48.0269C54.5166 48.0269 54.0314 47.9033 53.7342 47.6562C53.437 47.4092 53.2884 47.0046 53.2884 46.4424V43.166H52.3753V42.1294H53.2884V40.6899H54.6473V42.1294H55.8827V43.166H54.6473V46.1255C54.6473 46.4155 54.7082 46.6286 54.8299 46.7646C54.9552 46.8971 55.1558 46.9634 55.4315 46.9634C55.5282 46.9634 55.6069 46.9616 55.6678 46.958C55.7323 46.9508 55.8039 46.9437 55.8827 46.9365V47.9678C55.7896 47.9857 55.6821 48 55.5604 48.0107C55.4422 48.0215 55.3187 48.0269 55.1898 48.0269ZM59.6219 48.0269C58.9487 48.0269 58.4635 47.9033 58.1663 47.6562C57.8691 47.4092 57.7205 47.0046 57.7205 46.4424V43.166H56.8074V42.1294H57.7205V40.6899H59.0794V42.1294H60.3147V43.166H59.0794V46.1255C59.0794 46.4155 59.1402 46.6286 59.262 46.7646C59.3873 46.8971 59.5878 46.9634 59.8636 46.9634C59.9602 46.9634 60.039 46.9616 60.0999 46.958C60.1643 46.9508 60.236 46.9437 60.3147 46.9365V47.9678C60.2216 47.9857 60.1142 48 59.9925 48.0107C59.8743 48.0215 59.7508 48.0269 59.6219 48.0269ZM61.7282 48V42.1294H63.0603V48H61.7282ZM62.3996 41.1465C62.1812 41.1465 61.9932 41.0695 61.8357 40.9155C61.6781 40.7616 61.5993 40.5771 61.5993 40.3623C61.5993 40.1403 61.6781 39.9541 61.8357 39.8037C61.9932 39.6497 62.1812 39.5728 62.3996 39.5728C62.6181 39.5728 62.8043 39.6497 62.9582 39.8037C63.1158 39.9541 63.1945 40.1403 63.1945 40.3623C63.1945 40.5771 63.1158 40.7616 62.9582 40.9155C62.8043 41.0695 62.6181 41.1465 62.3996 41.1465ZM64.7692 48V42.1294H66.1066V43.0317H66.1979C66.3376 42.7131 66.5488 42.4642 66.8317 42.2852C67.1146 42.1061 67.4673 42.0166 67.8898 42.0166C68.5451 42.0166 69.0464 42.2064 69.3937 42.5859C69.741 42.9655 69.9147 43.5044 69.9147 44.2026V48H68.5773V44.5142C68.5773 44.0558 68.4806 43.7121 68.2873 43.4829C68.0975 43.2537 67.8003 43.1392 67.3957 43.1392C67.1307 43.1392 66.9015 43.1982 66.7082 43.3164C66.5148 43.4346 66.3662 43.6011 66.2624 43.8159C66.1585 44.0308 66.1066 44.285 66.1066 44.5786V48H64.7692ZM74.0782 50.0625C73.5626 50.0625 73.1168 49.9945 72.7408 49.8584C72.3684 49.7223 72.0748 49.529 71.86 49.2783C71.6451 49.0312 71.5144 48.743 71.4679 48.4136L71.4732 48.3975H72.8053L72.816 48.4136C72.859 48.5998 72.9897 48.752 73.2081 48.8701C73.4301 48.9919 73.7273 49.0527 74.0997 49.0527C74.558 49.0527 74.9125 48.9507 75.1632 48.7466C75.4174 48.5425 75.5445 48.2524 75.5445 47.8765V46.7485H75.4532C75.3422 46.9598 75.1972 47.1388 75.0182 47.2856C74.8427 47.4325 74.6404 47.5435 74.4112 47.6187C74.1856 47.6903 73.9368 47.7261 73.6646 47.7261C73.1705 47.7261 72.7426 47.6079 72.381 47.3716C72.0193 47.1317 71.74 46.8005 71.5431 46.3779C71.3497 45.9554 71.253 45.4666 71.253 44.9116V44.9009C71.253 44.3351 71.3515 43.8374 71.5484 43.4077C71.7454 42.978 72.0247 42.6414 72.3863 42.3979C72.7516 42.1545 73.1866 42.0327 73.6915 42.0327C73.9636 42.0327 74.2125 42.0757 74.4381 42.1616C74.6673 42.2476 74.8678 42.3693 75.0396 42.5269C75.2151 42.6844 75.3583 42.8742 75.4693 43.0962H75.5392V42.1294H76.8766V47.855C76.8766 48.3062 76.762 48.6965 76.5328 49.0259C76.3072 49.3589 75.985 49.6149 75.566 49.7939C75.1471 49.973 74.6511 50.0625 74.0782 50.0625ZM74.0782 46.6626C74.3862 46.6626 74.6511 46.5892 74.8731 46.4424C75.0952 46.292 75.2652 46.0861 75.3834 45.8247C75.5051 45.5633 75.566 45.259 75.566 44.9116V44.9009C75.566 44.5535 75.5051 44.2492 75.3834 43.9878C75.2652 43.7228 75.0952 43.5169 74.8731 43.3701C74.6511 43.2197 74.3862 43.1445 74.0782 43.1445C73.7667 43.1445 73.5017 43.2197 73.2833 43.3701C73.0685 43.5169 72.9037 43.7228 72.7892 43.9878C72.6782 44.2492 72.6227 44.5535 72.6227 44.9009V44.9116C72.6227 45.2554 72.6782 45.5597 72.7892 45.8247C72.9037 46.0861 73.0685 46.292 73.2833 46.4424C73.5017 46.5892 73.7667 46.6626 74.0782 46.6626ZM80.793 48.1182C80.2953 48.1182 79.8656 48.0483 79.5039 47.9087C79.1459 47.7655 78.863 47.5685 78.6553 47.3179C78.4476 47.0636 78.3241 46.77 78.2847 46.437V46.4263H79.6114L79.6167 46.437C79.6884 46.6411 79.8226 46.8076 80.0196 46.9365C80.2165 47.0654 80.4815 47.1299 80.8145 47.1299C81.0365 47.1299 81.2316 47.0994 81.3999 47.0386C81.5682 46.9741 81.7007 46.8864 81.7974 46.7754C81.8941 46.6644 81.9424 46.5355 81.9424 46.3887V46.3779C81.9424 46.2061 81.8726 46.0628 81.7329 45.9482C81.5933 45.8301 81.3623 45.7352 81.0401 45.6636L80.0894 45.4487C79.717 45.3664 79.4091 45.2518 79.1656 45.105C78.9221 44.9582 78.7395 44.7773 78.6177 44.5625C78.4995 44.3477 78.4405 44.097 78.4405 43.8105V43.8052C78.4405 43.4507 78.5389 43.1392 78.7359 42.8706C78.9364 42.6021 79.2139 42.3926 79.5684 42.2422C79.9229 42.0918 80.3311 42.0166 80.793 42.0166C81.2692 42.0166 81.6792 42.0882 82.023 42.2314C82.3667 42.3747 82.6353 42.5716 82.8287 42.8223C83.022 43.0729 83.133 43.3576 83.1617 43.6763V43.687H81.9048L81.8995 43.6709C81.8493 43.4847 81.7294 43.3271 81.5396 43.1982C81.3534 43.0658 81.1027 42.9995 80.7876 42.9995C80.5907 42.9995 80.4134 43.0299 80.2559 43.0908C80.1019 43.1517 79.9802 43.2376 79.8907 43.3486C79.8047 43.4561 79.7618 43.5832 79.7618 43.73V43.7354C79.7618 43.8499 79.7904 43.9502 79.8477 44.0361C79.9086 44.1221 80.0035 44.1973 80.1324 44.2617C80.2613 44.3262 80.4314 44.3835 80.6426 44.4336L81.5933 44.6431C82.1698 44.772 82.5959 44.9635 82.8716 45.2178C83.1473 45.472 83.2852 45.814 83.2852 46.2437V46.2544C83.2852 46.6268 83.1778 46.9526 82.9629 47.2319C82.7481 47.5112 82.4527 47.7297 82.0767 47.8872C81.7007 48.0412 81.2728 48.1182 80.793 48.1182Z" fill="white" fill-opacity="0.4"/>
<defs>
<clipPath id="clip0_17376_3182">
<rect width="32" height="32" fill="white" transform="translate(45 6)"/>
</clipPath>
</defs>
</svg>
